<?xml version="1.0" encoding="UTF-8" standalone="no"?>
<svg
   id="Layer_1"
   data-name="Layer 1"
   viewBox="0 0 460 70"
   version="1.1"
   sodipodi:docname="logos minisite Frutas-02.svg"
   width="460"
   height="70"
   inkscape:version="1.1.1 (3bf5ae0d25, 2021-09-20)"
   xmlns:inkscape="http://www.inkscape.org/namespaces/inkscape"
   xmlns:sodipodi="http://sodipodi.sourceforge.net/DTD/sodipodi-0.dtd"
   xmlns="http://www.w3.org/2000/svg"
   xmlns:svg="http://www.w3.org/2000/svg">
  <sodipodi:namedview
     id="namedview153"
     pagecolor="#ffffff"
     bordercolor="#666666"
     borderopacity="1.0"
     inkscape:pageshadow="2"
     inkscape:pageopacity="0.0"
     inkscape:pagecheckerboard="0"
     showgrid="false"
     inkscape:zoom="2.6925926"
     inkscape:cx="191.82256"
     inkscape:cy="91.547455"
     inkscape:window-width="2560"
     inkscape:window-height="1418"
     inkscape:window-x="0"
     inkscape:window-y="22"
     inkscape:window-maximized="1"
     inkscape:current-layer="Layer_1" />
  <defs
     id="defs4">
    <style
       id="style2">
      .cls-1 {
        fill: #231f20;
      }
    </style>
  </defs>
  <g
     id="g16"
     transform="matrix(0.99880578,0,0,1.0093725,-5.183802,-1.8269643)">
    <path
       class="cls-1"
       d="m 346.26,50.71 a 19.81,19.81 0 0 1 -4.2,-6.15 l -6.16,6.15 a 20,20 0 1 1 0,-28.22 l -7.06,7.06 a 10,10 0 1 0 0,14.11 l 12.24,-12.24 a 20,20 0 0 1 33.39,-8.93 l -7.06,7.06 a 10,10 0 1 0 0,14.11 l 12.25,-12.24 a 20,20 0 0 1 33.38,-8.93 L 406,29.55 a 10,10 0 1 0 0,14.11 l 12.24,-12.24 a 20,20 0 0 1 33.39,-8.93 l -7.06,7.06 a 10,10 0 1 0 0,14.11 l 14.11,-14.11 7.06,7.05 -14.12,14.11 a 19.94,19.94 0 0 1 -28.22,0 19.61,19.61 0 0 1 -4.19,-6.15 l -6.16,6.15 a 20,20 0 0 1 -32.42,-6.15 l -6.15,6.15 a 19.94,19.94 0 0 1 -28.22,0"
       id="path6" />
    <path
       class="cls-1"
       d="m 5.19,58.41 6.81,6.8 a 20.31,20.31 0 0 0 10,5.47 L 7.44,56.16 Z"
       id="path8" />
    <path
       class="cls-1"
       d="m 9.44,54.16 17,17 a 21.05,21.05 0 0 0 4.11,-0.4 L 11.69,51.91 Z"
       id="path10" />
    <path
       class="cls-1"
       d="m 13.68,49.92 18.87,18.87 a 21.05,21.05 0 0 0 0.4,-4.11 l -17,-17 z"
       id="path12" />
    <path
       class="cls-1"
       d="m 49.05,33.47 a 7.75,7.75 0 0 0 5.68,-2.08 v -4.92 h -6 v 1.86 h 4.06 v 2.14 a 5.79,5.79 0 0 1 -3.74,1.12 5.17,5.17 0 0 1 -5.33,-5.36 5.12,5.12 0 0 1 5.09,-5.37 4.93,4.93 0 0 1 4.19,1.93 l 1.43,-1.33 A 6.81,6.81 0 0 0 48.85,19 a 7.25,7.25 0 1 0 0.2,14.49"
       id="path14" />
  </g>
  <path
     class="cls-1"
     d="m 111.20704,21.388604 2.26728,5.612111 h -4.53457 z m -2.99642,7.489544 h 5.99283 l 1.16861,2.906993 h 2.05754 l -5.91294,-14.434027 h -0.62924 l -5.92292,14.484495 h 1.99761 z"
     id="path18"
     style="stroke-width:1.00408" />
  <path
     class="cls-1"
     d="m 150.97948,21.388604 2.26729,5.612111 h -4.53458 z m -4.19498,10.396537 1.1686,-2.906993 h 6.04277 l 1.16861,2.906993 h 2.05754 l -5.93291,-14.434027 h -0.65921 l -5.89296,14.44412 z"
     id="path20"
     style="stroke-width:1.00408" />
  <polygon
     class="cls-1"
     points="70.72,33.31 72.64,33.31 72.64,23.25 81.65,33.5 82.28,33.5 82.28,19.14 80.37,19.14 80.37,29.2 71.35,18.96 70.72,18.96 "
     id="polygon22"
     transform="matrix(0.99880578,0,0,1.0093725,-5.183802,-1.8269643)" />
  <polygon
     class="cls-1"
     points="67.02,19.14 58.19,19.14 58.19,33.31 67.29,33.31 67.29,31.45 60.19,31.45 60.19,28.31 66.28,28.31 66.28,26.47 60.19,26.47 60.19,21 67.02,21 "
     id="polygon24"
     transform="matrix(0.99880578,0,0,1.0093725,-5.183802,-1.8269643)" />
  <polygon
     class="cls-1"
     points="144.83,33.31 146.83,33.31 146.83,21 150.98,21 150.98,19.14 140.66,19.14 140.66,21 144.83,21 "
     id="polygon26"
     transform="matrix(0.99880578,0,0,1.0093725,-5.183802,-1.8269643)" />
  <rect
     class="cls-1"
     x="130.67377"
     y="17.492426"
     width="2.0175877"
     height="14.302809"
     id="rect28"
     style="stroke-width:1.00408" />
  <polygon
     class="cls-1"
     points="95.07,19.14 86.24,19.14 86.24,33.31 95.34,33.31 95.34,31.45 88.24,31.45 88.24,28.31 94.34,28.31 94.34,26.47 88.24,26.47 88.24,21 95.07,21 "
     id="polygon30"
     transform="matrix(0.99880578,0,0,1.0093725,-5.183802,-1.8269643)" />
  <polygon
     class="cls-1"
     points="127.15,19.14 125.16,19.14 125.16,33.31 133.41,33.31 133.41,31.45 127.15,31.45 "
     id="polygon32"
     transform="matrix(0.99880578,0,0,1.0093725,-5.183802,-1.8269643)" />
  <polygon
     class="cls-1"
     points="165.87,33.31 167.86,33.31 167.86,21 172.18,21 172.18,19.14 161.69,19.14 161.69,21 165.87,21 "
     id="polygon34"
     transform="matrix(0.99880578,0,0,1.0093725,-5.183802,-1.8269643)" />
  <path
     class="cls-1"
     d="m 95.465856,19.369859 h 1.668006 c 2.646835,0 3.935298,1.090122 3.935298,3.320835 0,2.230713 -1.288463,3.300648 -3.935298,3.300648 h -1.668006 z m 0,8.478729 h 1.74791 a 8.5997177,8.6906974 0 0 0 0.938878,0 l 2.646836,4.03749 h 2.41711 l -2.99642,-4.511895 a 4.6544349,4.7036759 0 0 0 2.99642,-4.592645 c 0,-3.25018 -2.21735,-5.198269 -5.912931,-5.198269 h -3.835415 v 14.211965 h 1.997612 z"
     id="path36"
     style="stroke-width:1.00408" />
  <polygon
     class="cls-1"
     points="144.65,43.77 153.66,54.02 154.29,54.02 154.29,39.67 152.37,39.67 152.37,49.72 143.36,39.48 142.73,39.48 142.73,53.83 144.65,53.83 "
     id="polygon38"
     transform="matrix(0.99880578,0,0,1.0093725,-5.183802,-1.8269643)" />
  <path
     class="cls-1"
     d="m 109.08957,52.679152 a 7.0715449,7.1463574 0 0 0 6.12268,-3.149243 l -1.59809,-1.140591 a 5.2037781,5.2588308 0 0 1 -4.48464,2.392213 5.1038975,5.1578936 0 0 1 -5.1838,-5.410236 5.1038975,5.1578936 0 0 1 5.08392,-5.410237 4.8941483,4.9459253 0 0 1 4.23493,2.200432 l 1.56813,-1.130497 a 6.741939,6.8132645 0 0 0 -5.78309,-2.967555 7.2313538,7.307857 0 0 0 0,14.615714"
     id="path40"
     style="stroke-width:1.00408" />
  <path
     class="cls-1"
     d="m 55.473673,42.111021 2.267289,5.612112 h -4.534578 z m 2.996417,7.489544 1.168603,2.906993 h 2.097492 L 55.74335,38.023063 h -0.629247 l -5.882966,14.484495 h 2.05754 l 1.158614,-2.856524 z"
     id="path42"
     style="stroke-width:1.00408" />
  <polygon
     class="cls-1"
     points="55.48,39.67 53.33,39.67 49.23,49.85 45.13,39.67 42.98,39.67 48.91,54.02 49.55,54.02 "
     id="polygon44"
     transform="matrix(0.99880578,0,0,1.0093725,-5.183802,-1.8269643)" />
  <path
     class="cls-1"
     d="m 128.75605,42.111021 2.26729,5.612112 h -4.53458 z m 2.99642,7.489544 1.1686,2.906993 h 2.05754 l -5.9329,-14.484495 h -0.62925 l -5.92292,14.484495 h 2.04755 l 1.18858,-2.856524 z"
     id="path46"
     style="stroke-width:1.00408" />
  <path
     class="cls-1"
     d="m 155.27435,47.723133 2.26729,-5.612112 2.26728,5.612112 z m 1.94767,-9.70007 -5.92292,14.484495 h 2.05754 l 1.15861,-2.856524 h 6.04278 l 1.1686,2.906993 h 2.05754 l -5.93291,-14.484496 z"
     id="path48"
     style="stroke-width:1.00408" />
  <polygon
     class="cls-1"
     points="104.31,39.66 102.4,39.66 102.4,49.72 93.38,39.48 92.75,39.48 92.75,53.83 94.67,53.83 94.67,43.77 103.69,54.02 104.31,54.02 "
     id="polygon50"
     transform="matrix(0.99880578,0,0,1.0093725,-5.183802,-1.8269643)" />
  <rect
     class="cls-1"
     x="118.11876"
     y="38.20475"
     width="2.0175877"
     height="14.302809"
     id="rect52"
     style="stroke-width:1.00408" />
  <polygon
     class="cls-1"
     points="88.32,48.83 88.32,46.99 82.22,46.99 82.22,41.52 89.05,41.52 89.05,39.66 80.22,39.66 80.22,53.83 89.33,53.83 89.33,51.97 82.22,51.97 82.22,48.83 "
     id="polygon54"
     transform="matrix(0.99880578,0,0,1.0093725,-5.183802,-1.8269643)" />
  <polygon
     class="cls-1"
     points="71.36,39.66 69.36,39.66 69.36,53.83 77.61,53.83 77.61,51.97 71.36,51.97 "
     id="polygon56"
     transform="matrix(0.99880578,0,0,1.0093725,-5.183802,-1.8269643)" />
  <path
     class="cls-1"
     d="M 5.2936706,11.890408 C 6.5222017,10.05335 6.7319509,10.012975 6.7319509,10.012975 A 1.7179459,1.7361207 0 0 0 4.83422,10.72963 c -1.2285311,1.837058 -1.4282923,1.877433 -1.4282923,1.877433 a 1.7179459,1.7361207 0 0 0 1.8877429,-0.716655"
     id="path58"
     style="stroke-width:1.00408" />
  <polygon
     class="cls-1"
     points="23.14,33.14 23.53,33.14 23.53,31.27 23.95,31.27 23.95,29.83 25.39,29.83 25.39,28.61 23.95,28.61 23.95,27.16 22.72,27.16 22.72,28.61 21.28,28.61 21.28,29.83 22.72,29.83 22.72,31.27 23.14,31.27 "
     id="polygon60"
     transform="matrix(0.99880578,0,0,1.0093725,-5.183802,-1.8269643)" />
  <g
     id="g68"
     transform="matrix(0.99880578,0,0,1.0093725,-5.183802,-1.8269643)">
    <path
       class="cls-1"
       d="m 17.93,45.67 14.52,14.52 a 20.19,20.19 0 0 0 -5.47,-10 l -6.8,-6.81 z"
       id="path62" />
    <path
       class="cls-1"
       d="M 15.56,5.46 A 0.65,0.65 0 1 0 16.21,6.11 0.66,0.66 0 0 0 15.56,5.46"
       id="path64" />
    <path
       class="cls-1"
       d="m 12.72,21.45 a 4,4 0 0 0 3.28,-1.8 4,4 0 0 0 6.63,0 4,4 0 0 0 3.37,1.8 4.06,4.06 0 0 0 1.56,-0.32 l -0.71,1.71 h -15 l -0.71,-1.71 a 4.06,4.06 0 0 0 1.56,0.32 m 0.15,-4.1 c 1.13,-2.88 4.76,-4.3 6.44,-5.49 A 3.25,3.25 0 0 0 20.66,9.37 2.56,2.56 0 0 0 18.11,6.83 c -1.31,0 -3.28,1.49 -4.13,2.37 a 1.81,1.81 0 0 0 -1,-0.77 11.58,11.58 0 0 0 1.35,-4.25 4.61,4.61 0 0 0 1.79,0.36 4.56,4.56 0 0 0 2.8,-1 5.16,5.16 0 0 0 3.7,1.55 H 23 a 5.53,5.53 0 0 0 1.89,3.66 l -0.08,0.06 a 8.84,8.84 0 0 0 -1.55,1.76 8.22,8.22 0 0 1 -3,2.78 4.12,4.12 0 0 1 -1.35,0.47 5.5,5.5 0 0 1 0.14,1.22 6.13,6.13 0 0 1 -0.4,2.15 l 1.06,0.41 a 7,7 0 0 0 0.47,-2.56 v -0.31 a 8.94,8.94 0 0 0 4.07,-3.47 6,6 0 0 1 3.6,-2.69 6,6 0 0 0 0.1,4.89 5.87,5.87 0 0 0 -2,2.3 6,6 0 0 0 -0.37,4.48 2.82,2.82 0 0 1 -2.19,-1.77 1,1 0 1 0 -1.37,0 2.82,2.82 0 0 1 -5.27,0 1,1 0 0 0 0.33,-0.74 1,1 0 1 0 -1.7,0.74 2.8,2.8 0 0 1 -2.63,1.81 c -0.14,0 -0.27,0 -0.4,0 a 8.89,8.89 0 0 1 0.55,-2.93 m 18,19.88 -5.95,5.93 -1.37,-1.37 C 21.26,39.47 20.64,36.63 20.41,33.06 20.3,31.41 20.25,29.62 20.25,27.58 v -3.51 h 6.25 v 3.51 c 0,3.7 1.35,6.65 4.4,9.65 m -13.56,4 V 28.61 h -7.27 l 2.24,-4.54 H 19 v 3.51 c 0,1 0,3.23 0.16,5.57 a 18.1,18.1 0 0 0 1.39,6.45 z m -1.22,0.62 -3.59,1.75 a 34.29,34.29 0 0 0 -0.28,-7 32.09,32.09 0 0 0 -2.2,-6.76 h 6 z M 8.93,18.7 v 0 l 2.13,5.14 -2.66,5.38 a 33.56,33.56 0 0 1 2.65,7.59 41.75,41.75 0 0 1 0.12,8.85 l 9.91,-5 v 0 a 10.63,10.63 0 0 0 1.57,2 l 2.23,2.23 7.7,-7.69 -0.51,-0.48 c -3.1,-2.9 -4.42,-5.63 -4.42,-9.14 v -3.75 l 2.12,-5.12 v 0 a 1,1 0 1 0 -1.37,-0.94 1,1 0 0 0 0.25,0.65 2.84,2.84 0 0 1 -1.93,1.79 4.87,4.87 0 0 1 2.85,-6.27 A 4.82,4.82 0 0 1 30.1,7.38 5.93,5.93 0 0 0 25.84,8.11 4.37,4.37 0 0 1 24.11,4.63 4.08,4.08 0 0 1 24.21,3.7 4.14,4.14 0 0 1 22.67,4 4,4 0 0 1 19.07,1.81 3.43,3.43 0 0 1 16.17,3.41 3.43,3.43 0 0 1 13.28,1.83 c 0.25,2.85 -0.6,6.21 -3,8 l 0.66,0.88 a 9.87,9.87 0 0 0 1.14,-1 0.66,0.66 0 0 1 0.51,-0.25 0.59,0.59 0 0 1 0.56,0.59 0.76,0.76 0 0 1 -0.1,0.35 v 0 A 2.44,2.44 0 0 0 12.78,11.52 2.62,2.62 0 0 0 13,12.6 l 1,-0.47 c -0.46,-1 0.33,-1.92 1.59,-2.86 A 5.52,5.52 0 0 1 18.13,8 1.4,1.4 0 0 1 19.54,9.4 c 0,0.88 -0.86,1.57 -1.53,2 -2.48,1.56 -5,2.7 -6.14,5.46 a 9.76,9.76 0 0 0 -0.69,3 3.08,3.08 0 0 1 -1.13,-1.42 1,1 0 0 0 0.25,-0.65 1,1 0 1 0 -1.37,0.94"
       id="path66" />
  </g>
  <polygon
     class="cls-1"
     points="215.24,28.6 215.24,21.94 219.03,21.94 219.03,23.41 216.97,23.41 216.97,24.51 218.93,24.51 218.93,25.99 216.97,25.99 216.97,27.14 219.03,27.14 219.03,28.6 "
     id="polygon70"
     transform="matrix(0.99880578,0,0,1.0093725,-5.183802,-1.8269643)" />
  <polygon
     class="cls-1"
     points="230.22,24.77 228.62,28.6 227.93,28.6 226.4,24.77 226.38,24.77 225.82,28.6 224.1,28.6 225.23,21.94 226.94,21.94 228.28,25.5 229.73,21.94 231.45,21.94 232.45,28.6 230.72,28.6 230.24,24.77 "
     id="polygon72"
     transform="matrix(0.99880578,0,0,1.0093725,-5.183802,-1.8269643)" />
  <polygon
     class="cls-1"
     points="248.48,28.6 248.48,21.94 252.28,21.94 252.28,23.41 250.22,23.41 250.22,24.51 252.17,24.51 252.17,25.99 250.22,25.99 250.22,27.14 252.28,27.14 252.28,28.6 "
     id="polygon74"
     transform="matrix(0.99880578,0,0,1.0093725,-5.183802,-1.8269643)" />
  <polygon
     class="cls-1"
     points="215.24,39.96 215.24,33.29 219.03,33.29 219.03,34.76 216.97,34.76 216.97,35.87 218.92,35.87 218.92,37.34 216.97,37.34 216.97,38.49 219.03,38.49 219.03,39.96 "
     id="polygon76"
     transform="matrix(0.99880578,0,0,1.0093725,-5.183802,-1.8269643)" />
  <polygon
     class="cls-1"
     points="258.08,39.96 254.26,39.96 254.26,33.29 256,33.29 256,38.49 258.08,38.49 "
     id="polygon78"
     transform="matrix(0.99880578,0,0,1.0093725,-5.183802,-1.8269643)" />
  <path
     class="cls-1"
     d="m 258.16133,33.854354 v 0 l -0.71914,2.13987 h 1.43828 z m -1.20856,3.482335 -0.44946,1.211247 h -1.82781 l 2.55694,-6.732514 h 1.89773 l 2.49701,6.732514 h -1.8378 l -0.42948,-1.170872 z"
     id="path80"
     style="stroke-width:1.00408" />
  <polygon
     class="cls-1"
     points="228.22,47.47 226.62,51.3 225.93,51.3 224.4,47.47 224.38,47.47 223.83,51.3 222.1,51.3 223.23,44.64 224.94,44.64 226.29,48.2 227.72,44.64 229.45,44.64 230.45,51.3 228.72,51.3 228.24,47.47 "
     id="polygon82"
     transform="matrix(0.99880578,0,0,1.0093725,-5.183802,-1.8269643)" />
  <polygon
     class="cls-1"
     points="241.04,47.23 241.02,47.23 241.02,51.3 239.29,51.3 239.29,44.64 241.02,44.64 244.2,48.72 244.22,48.72 244.22,44.64 245.95,44.64 245.95,51.3 244.22,51.3 "
     id="polygon84"
     transform="matrix(0.99880578,0,0,1.0093725,-5.183802,-1.8269643)" />
  <rect
     class="cls-1"
     x="242.2104"
     y="43.24152"
     width="1.7379221"
     height="6.7224207"
     id="rect86"
     style="stroke-width:1.00408" />
  <polygon
     class="cls-1"
     points="253.81,51.3 252.07,51.3 252.07,46.11 250.64,46.11 250.64,44.64 255.24,44.64 255.24,46.11 253.81,46.11 "
     id="polygon88"
     transform="matrix(0.99880578,0,0,1.0093725,-5.183802,-1.8269643)" />
  <path
     class="cls-1"
     d="m 253.35707,45.310732 v 0 l -0.70915,2.13987 h 1.42829 z m -1.19856,3.482335 -0.45945,1.160779 h -1.83781 l 2.55695,-6.722421 h 1.88774 l 2.51699,6.722421 h -1.85778 l -0.45945,-1.160779 z"
     id="path90"
     style="stroke-width:1.00408" />
  <polygon
     class="cls-1"
     points="265.59,51.3 263.85,51.3 263.85,46.11 262.43,46.11 262.43,44.64 267.02,44.64 267.02,46.11 265.59,46.11 "
     id="polygon92"
     transform="matrix(0.99880578,0,0,1.0093725,-5.183802,-1.8269643)" />
  <polygon
     class="cls-1"
     points="212.01,55.99 213.9,55.99 211.05,62.66 209.71,62.66 206.9,55.99 208.78,55.99 210.39,60.04 "
     id="polygon94"
     transform="matrix(0.99880578,0,0,1.0093725,-5.183802,-1.8269643)" />
  <path
     class="cls-1"
     d="m 210.98773,56.777204 v 0 l -0.70915,2.13987 h 1.43828 z m -1.20855,3.472242 -0.45945,1.170872 h -1.83781 l 2.56693,-6.722421 h 1.88775 l 2.507,6.732514 h -1.88774 l -0.42949,-1.170872 z"
     id="path96"
     style="stroke-width:1.00408" />
  <polygon
     class="cls-1"
     points="224.22,62.66 220.42,62.66 220.42,55.99 222.15,55.99 222.15,61.19 224.22,61.19 "
     id="polygon98"
     transform="matrix(0.99880578,0,0,1.0093725,-5.183802,-1.8269643)" />
  <polygon
     class="cls-1"
     points="224.77,62.66 224.77,55.99 228.57,55.99 228.57,57.46 226.51,57.46 226.51,58.57 228.47,58.57 228.47,60.05 226.51,60.05 226.51,61.19 228.57,61.19 228.57,62.66 "
     id="polygon100"
     transform="matrix(0.99880578,0,0,1.0093725,-5.183802,-1.8269643)" />
  <polygon
     class="cls-1"
     points="231.38,58.57 231.36,58.57 231.36,62.66 229.63,62.66 229.63,55.99 231.36,55.99 234.53,60.07 234.55,60.07 234.55,55.99 236.28,55.99 236.28,62.66 234.55,62.66 "
     id="polygon102"
     transform="matrix(0.99880578,0,0,1.0093725,-5.183802,-1.8269643)" />
  <rect
     class="cls-1"
     x="237.74574"
     y="54.687801"
     width="1.727934"
     height="6.7325149"
     id="rect104"
     style="stroke-width:1.00408" />
  <path
     class="cls-1"
     d="m 243.51884,56.777204 v 0 l -0.70916,2.13987 h 1.43828 z m -1.20856,3.472242 -0.45945,1.170872 h -1.8378 l 2.507,-6.722421 h 1.88774 l 2.50701,6.732514 h -1.84779 l -0.42949,-1.170872 z"
     id="path106"
     style="stroke-width:1.00408" />
  <polygon
     class="cls-1"
     points="254.72,58.57 254.7,58.57 254.7,62.66 252.97,62.66 252.97,55.99 254.7,55.99 257.88,60.07 257.89,60.07 257.89,55.99 259.62,55.99 259.62,62.66 257.89,62.66 "
     id="polygon108"
     transform="matrix(0.99880578,0,0,1.0093725,-5.183802,-1.8269643)" />
  <path
     class="cls-1"
     d="m 258.15134,56.777204 v 0 l -0.71914,2.13987 h 1.43828 z m -1.20855,3.472242 -0.43948,1.170872 h -1.8378 l 2.54695,-6.722421 h 1.88775 l 2.507,6.732514 h -1.8378 l -0.43948,-1.170872 z"
     id="path110"
     style="stroke-width:1.00408" />
  <rect
     class="cls-1"
     x="259.04028"
     y="8.8521967"
     width="1.727934"
     height="6.7325149"
     id="rect112"
     style="stroke-width:1.00408" />
  <g
     id="g118"
     transform="matrix(0.99880578,0,0,1.0093725,-5.183802,-1.8269643)">
    <path
       class="cls-1"
       d="m 212.37,12.83 a 1.9,1.9 0 0 0 -1.52,-0.74 1.75,1.75 0 0 0 -1.78,1.85 1.73,1.73 0 0 0 1.8,1.81 2,2 0 0 0 1.5,-0.71 v 2.08 a 5.14,5.14 0 0 1 -1.53,0.31 3.67,3.67 0 0 1 -2.5,-1 3.24,3.24 0 0 1 -1.07,-2.52 3.48,3.48 0 0 1 1,-2.44 3.65,3.65 0 0 1 2.54,-1.08 4.35,4.35 0 0 1 1.59,0.33 z"
       id="path114" />
    <path
       class="cls-1"
       d="m 216.42,13.81 a 1.88,1.88 0 1 0 3.76,0 1.88,1.88 0 0 0 -3.76,0 m 5.57,0 a 3.7,3.7 0 1 1 -3.69,-3.43 3.54,3.54 0 0 1 3.7,3.42"
       id="path116" />
  </g>
  <polygon
     class="cls-1"
     points="226.05,13.17 226.04,13.17 226.04,17.25 224.3,17.25 224.3,10.58 226.04,10.58 229.21,14.66 229.22,14.66 229.22,10.58 230.96,10.58 230.96,17.25 229.22,17.25 "
     id="polygon120"
     transform="matrix(0.99880578,0,0,1.0093725,-5.183802,-1.8269643)" />
  <g
     id="g150"
     transform="matrix(0.99880578,0,0,1.0093725,-5.183802,-1.8269643)">
    <path
       class="cls-1"
       d="m 237.27,12.3 a 1.87,1.87 0 0 0 -1.15,-0.44 c -0.33,0 -0.75,0.18 -0.75,0.55 0,0.37 0.47,0.55 0.77,0.65 l 0.45,0.12 c 0.92,0.28 1.64,0.75 1.64,1.83 a 2.22,2.22 0 0 1 -0.7,1.79 2.9,2.9 0 0 1 -1.89,0.63 4.05,4.05 0 0 1 -2.33,-0.76 l 0.74,-1.39 a 2.37,2.37 0 0 0 1.53,0.68 c 0.41,0 0.84,-0.2 0.84,-0.67 0,-0.47 -0.68,-0.66 -1,-0.76 -1.09,-0.31 -1.8,-0.59 -1.8,-1.88 a 2.16,2.16 0 0 1 2.3,-2.24 A 4.48,4.48 0 0 1 238,11 Z"
       id="path122" />
    <path
       class="cls-1"
       d="m 242,13.81 a 1.88,1.88 0 1 0 3.76,0 1.88,1.88 0 0 0 -3.76,0 m 5.57,0 a 3.69,3.69 0 1 1 -3.69,-3.43 3.54,3.54 0 0 1 3.69,3.43"
       id="path124" />
    <path
       class="cls-1"
       d="m 251.64,13.57 h 0.17 c 0.57,0 1.21,-0.1 1.21,-0.83 0,-0.73 -0.64,-0.83 -1.21,-0.83 h -0.17 z m 3.82,3.68 h -2.15 l -1.64,-2.56 v 0 2.56 h -1.72 v -6.67 h 2.58 c 1.32,0 2.32,0.64 2.32,2.06 a 1.79,1.79 0 0 1 -1.46,1.88 z"
       id="path126" />
    <path
       class="cls-1"
       d="m 262,12.83 a 1.88,1.88 0 0 0 -1.52,-0.74 1.76,1.76 0 0 0 -1.78,1.85 1.73,1.73 0 0 0 1.8,1.81 A 2,2 0 0 0 262,15 v 2.08 a 5.08,5.08 0 0 1 -1.53,0.31 3.69,3.69 0 0 1 -2.5,-1 3.27,3.27 0 0 1 -1.07,-2.52 3.49,3.49 0 0 1 1,-2.44 3.61,3.61 0 0 1 2.53,-1.08 4.31,4.31 0 0 1 1.59,0.33 z"
       id="path128" />
    <path
       class="cls-1"
       d="m 209.34,27.13 h 0.38 a 1.86,1.86 0 1 0 0,-3.72 h -0.4 z m -1.74,-5.19 h 2.46 a 3.33,3.33 0 1 1 0,6.66 h -2.46 z"
       id="path130" />
    <path
       class="cls-1"
       d="m 240,21.94 v 3.75 a 3,3 0 0 1 -0.69,2.35 3.69,3.69 0 0 1 -4.43,0 3,3 0 0 1 -0.69,-2.35 v -3.75 h 1.73 v 3.51 c 0,0.86 0.06,1.81 1.18,1.81 1.12,0 1.17,-1 1.17,-1.81 v -3.51 z"
       id="path132" />
    <path
       class="cls-1"
       d="m 245.7,23.65 a 1.79,1.79 0 0 0 -1.14,-0.43 c -0.31,0 -0.75,0.18 -0.75,0.55 0,0.37 0.47,0.53 0.77,0.63 l 0.45,0.14 c 0.93,0.26 1.64,0.74 1.64,1.82 a 2.26,2.26 0 0 1 -0.69,1.79 2.9,2.9 0 0 1 -1.89,0.63 4.08,4.08 0 0 1 -2.34,-0.76 l 0.74,-1.4 a 2.38,2.38 0 0 0 1.54,0.69 c 0.41,0 0.84,-0.2 0.84,-0.67 0,-0.47 -0.69,-0.65 -1.06,-0.76 -1.08,-0.31 -1.8,-0.59 -1.8,-1.89 a 2.16,2.16 0 0 1 2.31,-2.23 4.52,4.52 0 0 1 2.08,0.55 z"
       id="path134" />
    <path
       class="cls-1"
       d="m 260.12,21.94 v 3.75 a 3,3 0 0 1 -0.7,2.35 A 3.69,3.69 0 0 1 255,28 3.07,3.07 0 0 1 254.31,25.65 V 21.94 H 256 v 3.51 c 0,0.86 0.06,1.81 1.17,1.81 1.11,0 1.18,-1 1.18,-1.81 v -3.51 z"
       id="path136" />
    <path
       class="cls-1"
       d="m 209.34,38.49 h 0.38 a 1.87,1.87 0 1 0 0,-3.73 h -0.4 z m -1.74,-5.2 h 2.46 a 3.34,3.34 0 1 1 0,6.67 h -2.46 z"
       id="path138" />
    <path
       class="cls-1"
       d="m 212.37,46.88 a 1.92,1.92 0 0 0 -1.52,-0.73 1.75,1.75 0 0 0 -1.78,1.85 1.73,1.73 0 0 0 1.8,1.81 2,2 0 0 0 1.5,-0.71 v 2.08 a 4.82,4.82 0 0 1 -1.53,0.3 3.66,3.66 0 0 1 -2.5,-1 3.24,3.24 0 0 1 -1.07,-2.48 3.54,3.54 0 0 1 1,-2.45 3.65,3.65 0 0 1 2.54,-1.08 4,4 0 0 1 1.59,0.35 z"
       id="path140" />
    <path
       class="cls-1"
       d="m 215.51,47.86 a 1.89,1.89 0 1 0 3.77,0 1.89,1.89 0 0 0 -3.77,0 m 5.58,0 a 3.7,3.7 0 1 1 -3.7,-3.43 3.55,3.55 0 0 1 3.7,3.43"
       id="path142" />
    <path
       class="cls-1"
       d="m 237.58,44.64 v 3.76 a 3,3 0 0 1 -0.69,2.34 3.69,3.69 0 0 1 -4.43,0 3,3 0 0 1 -0.7,-2.34 v -3.76 h 1.74 v 3.52 c 0,0.86 0.05,1.81 1.18,1.81 1.13,0 1.17,-0.95 1.17,-1.81 v -3.52 z"
       id="path144" />
    <path
       class="cls-1"
       d="m 242.17,58.23 a 1.9,1.9 0 0 0 -1.52,-0.73 1.83,1.83 0 0 0 0,3.66 2,2 0 0 0 1.5,-0.71 v 2.08 a 5.12,5.12 0 0 1 -1.53,0.3 3.71,3.71 0 0 1 -2.5,-1 3.25,3.25 0 0 1 -1.07,-2.52 3.45,3.45 0 0 1 1,-2.44 3.62,3.62 0 0 1 2.54,-1.08 4.3,4.3 0 0 1 1.58,0.33 z"
       id="path146" />
    <path
       class="cls-1"
       d="m 266,23.74 a 1.81,1.81 0 0 0 -1.14,-0.43 c -0.32,0 -0.75,0.18 -0.75,0.55 0,0.37 0.48,0.54 0.78,0.63 l 0.44,0.14 c 0.93,0.27 1.64,0.74 1.64,1.82 a 2.26,2.26 0 0 1 -0.69,1.79 2.84,2.84 0 0 1 -1.89,0.63 4.14,4.14 0 0 1 -2.35,-0.76 l 0.75,-1.39 a 2.35,2.35 0 0 0 1.54,0.68 c 0.41,0 0.84,-0.2 0.84,-0.67 0,-0.47 -0.69,-0.65 -1.06,-0.76 -1.08,-0.3 -1.8,-0.59 -1.8,-1.88 a 2.16,2.16 0 0 1 2.3,-2.24 4.68,4.68 0 0 1 2.09,0.55 z"
       id="path148" />
  </g>
</svg>
