<?xml version="1.0" encoding="UTF-8" standalone="no"?>
<svg
   id="Layer_1"
   data-name="Layer 1"
   viewBox="0 0 459.99999 58.000001"
   version="1.1"
   sodipodi:docname="logos minisite Frutas-03.svg"
   width="460"
   height="58"
   inkscape:version="1.1.1 (3bf5ae0d25, 2021-09-20)"
   xmlns:inkscape="http://www.inkscape.org/namespaces/inkscape"
   xmlns:sodipodi="http://sodipodi.sourceforge.net/DTD/sodipodi-0.dtd"
   xmlns="http://www.w3.org/2000/svg"
   xmlns:svg="http://www.w3.org/2000/svg">
  <sodipodi:namedview
     id="namedview67"
     pagecolor="#ffffff"
     bordercolor="#666666"
     borderopacity="1.0"
     inkscape:pageshadow="2"
     inkscape:pageopacity="0.0"
     inkscape:pagecheckerboard="0"
     showgrid="false"
     width="460px"
     inkscape:zoom="2.9595691"
     inkscape:cx="230.27"
     inkscape:cy="28.88934"
     inkscape:window-width="2560"
     inkscape:window-height="1418"
     inkscape:window-x="0"
     inkscape:window-y="22"
     inkscape:window-maximized="1"
     inkscape:current-layer="Layer_1" />
  <defs
     id="defs4">
    <style
       id="style2">
      .cls-1 {
        fill: #231f20;
      }
    </style>
  </defs>
  <rect
     class="cls-1"
     x="60.108284"
     y="0.010007111"
     width="1.6680098"
     height="57.989582"
     id="rect6"
     style="stroke-width:0.999745" />
  <g
     id="g18"
     transform="scale(0.99880828,1.000683)">
    <path
       class="cls-1"
       d="M 38.29,9.3 H 3.54 a 0.81,0.81 0 1 0 0,1.62 h 34.75 a 0.81,0.81 0 0 0 0,-1.62"
       id="path8" />
    <path
       class="cls-1"
       d="M 38.29,13.41 H 3.54 a 0.81,0.81 0 0 0 0,1.62 h 34.75 a 0.81,0.81 0 1 0 0,-1.62"
       id="path10" />
    <path
       class="cls-1"
       d="m 3.54,13 h 1.81 a 0.81,0.81 0 0 0 0,-1.62 H 3.54 a 0.81,0.81 0 1 0 0,1.62"
       id="path12" />
    <path
       class="cls-1"
       d="m 38.29,11.35 h -1.8 a 0.82,0.82 0 0 0 -0.81,0.82 0.8,0.8 0 0 0 0.81,0.8 h 1.8 a 0.8,0.8 0 0 0 0.81,-0.8 0.82,0.82 0 0 0 -0.81,-0.82"
       id="path14" />
    <path
       class="cls-1"
       d="m 22.73,13 a 0.81,0.81 0 0 0 0,-1.62 h -3.62 a 0.81,0.81 0 1 0 0,1.62 z"
       id="path16" />
  </g>
  <polygon
     class="cls-1"
     points="12.23,11.22 9.56,12.13 12.23,13.05 14.89,12.13 "
     id="polygon20"
     transform="scale(0.99880828,1.000683)" />
  <polygon
     class="cls-1"
     points="29.61,11.22 26.94,12.13 29.61,13.05 32.27,12.13 "
     id="polygon22"
     transform="scale(0.99880828,1.000683)" />
  <g
     id="g40"
     transform="scale(0.99880828,1.000683)">
    <path
       class="cls-1"
       d="M 34.85,12.13 A 0.88,0.88 0 1 0 34,13 0.88,0.88 0 0 0 34.88,12.11"
       id="path24" />
    <path
       class="cls-1"
       d="m 26.12,12.13 a 0.88,0.88 0 1 0 -0.88,0.89 0.88,0.88 0 0 0 0.88,-0.89"
       id="path26" />
    <path
       class="cls-1"
       d="m 17.48,12.13 a 0.89,0.89 0 1 0 -0.89,0.89 0.89,0.89 0 0 0 0.89,-0.89"
       id="path28" />
    <path
       class="cls-1"
       d="M 8.74,12.13 A 0.88,0.88 0 1 0 7.86,13.02 0.88,0.88 0 0 0 8.74,12.13"
       id="path30" />
    <path
       class="cls-1"
       d="M 40,0 A 2.92,2.92 0 0 0 37.62,1.51 5.58,5.58 0 0 0 37,1.43 1.69,1.69 0 0 0 36,1.61 1.72,1.72 0 0 1 36.92,3 1.72,1.72 0 0 1 35.58,2.11 a 1.69,1.69 0 0 0 -0.18,1 c 0,0.11 0,0.24 0,0.34 A 2.14,2.14 0 0 0 34,4.13 2.09,2.09 0 0 0 35.39,4.86 c 0,0.11 0,0.24 0,0.35 a 1.71,1.71 0 0 0 0.18,1 1.76,1.76 0 0 1 1.66,-0.92 h 0.15 a 1.41,1.41 0 0 1 0,0.2 c 0,0.89 -0.41,1.71 -1.5,1.71 a 1.45,1.45 0 0 1 -1.28,-0.87 1,1 0 0 0 0.19,-0.59 1,1 0 1 0 -2,0 1,1 0 0 0 0.19,0.59 1.45,1.45 0 0 1 -1.28,0.87 c -1.09,0 -1.5,-0.82 -1.5,-1.71 v -0.2 h 0.16 a 1.76,1.76 0 0 1 1.64,0.9 1.71,1.71 0 0 0 0.18,-1 c 0,-0.11 0,-0.24 0,-0.35 A 2.09,2.09 0 0 0 33.57,4.11 2.14,2.14 0 0 0 32.18,3.37 c 0,-0.1 0,-0.23 0,-0.34 A 1.69,1.69 0 0 0 32,2.03 1.72,1.72 0 0 1 30.66,3 a 1.75,1.75 0 0 1 0.9,-1.35 1.69,1.69 0 0 0 -1,-0.18 H 30.21 A 2.06,2.06 0 0 0 29.5,0.05 2.06,2.06 0 0 0 28.77,1.44 h -0.35 a 1.71,1.71 0 0 0 -1,0.18 A 1.71,1.71 0 0 1 28.34,3 1.72,1.72 0 0 1 27,2.07 a 1.8,1.8 0 0 0 -0.17,1 v 0.34 a 2.09,2.09 0 0 0 -1.38,0.74 2,2 0 0 0 1.38,0.73 v 0.35 a 1.82,1.82 0 0 0 0.17,1 1.76,1.76 0 0 1 1.67,-0.92 h 0.15 v 0.2 c 0,0.89 -0.41,1.71 -1.5,1.71 A 1.47,1.47 0 0 1 26,6.31 1,1 0 0 0 25.18,4.7 h -0.21 a 1,1 0 0 0 -0.81,1 1,1 0 0 0 0.19,0.59 1.44,1.44 0 0 1 -1.27,0.87 c -1.09,0 -1.51,-0.82 -1.51,-1.71 a 1.41,1.41 0 0 1 0,-0.2 h 0.15 a 1.75,1.75 0 0 1 1.66,0.92 1.71,1.71 0 0 0 0.18,-1 c 0,-0.11 0,-0.24 0,-0.35 A 2.06,2.06 0 0 0 25,4.13 2.11,2.11 0 0 0 23.61,3.39 c 0,-0.1 0,-0.23 0,-0.34 A 1.69,1.69 0 0 0 23.43,2.05 1.7,1.7 0 0 1 22.08,3 1.72,1.72 0 0 1 23,1.61 1.67,1.67 0 0 0 22,1.43 H 21.65 A 2.11,2.11 0 0 0 20.92,0.05 2.07,2.07 0 0 0 20.18,1.44 h -0.34 a 1.69,1.69 0 0 0 -1,0.18 1.72,1.72 0 0 1 0.91,1.38 1.7,1.7 0 0 1 -1.34,-0.89 1.69,1.69 0 0 0 -0.18,1 c 0,0.11 0,0.24 0,0.34 a 2.14,2.14 0 0 0 -1.39,0.74 2.09,2.09 0 0 0 1.39,0.73 c 0,0.11 0,0.24 0,0.35 a 1.71,1.71 0 0 0 0.18,1 1.76,1.76 0 0 1 1.66,-0.92 h 0.15 a 1.41,1.41 0 0 1 0,0.2 c 0,0.89 -0.41,1.71 -1.5,1.71 A 1.45,1.45 0 0 1 17.44,6.39 1.08,1.08 0 0 0 17.62,5.8 1,1 0 1 0 15.79,6.39 1.44,1.44 0 0 1 14.51,7.26 c -1.09,0 -1.5,-0.82 -1.5,-1.71 v -0.2 h 0.16 a 1.76,1.76 0 0 1 1.66,0.92 1.71,1.71 0 0 0 0.18,-1 c 0,-0.11 0,-0.24 0,-0.35 A 2.09,2.09 0 0 0 16.4,4.19 2.14,2.14 0 0 0 15,3.39 c 0,-0.1 0,-0.23 0,-0.34 a 1.69,1.69 0 0 0 -0.18,-1 1.72,1.72 0 0 1 -1.33,0.95 1.71,1.71 0 0 1 0.9,-1.35 1.69,1.69 0 0 0 -1,-0.18 H 13.04 A 2.06,2.06 0 0 0 12.33,0.05 2.06,2.06 0 0 0 11.6,1.44 h -0.35 a 1.69,1.69 0 0 0 -1,0.18 1.71,1.71 0 0 1 0.92,1.38 1.72,1.72 0 0 1 -1.35,-0.89 1.69,1.69 0 0 0 -0.18,1 c 0,0.11 0,0.24 0,0.34 A 2.14,2.14 0 0 0 8.25,4.19 2.09,2.09 0 0 0 9.64,4.92 c 0,0.11 0,0.24 0,0.35 a 1.71,1.71 0 0 0 0.18,1 1.76,1.76 0 0 1 1.66,-0.92 h 0.16 v 0.2 c 0,0.89 -0.41,1.71 -1.5,1.71 A 1.46,1.46 0 0 1 8.86,6.39 1,1 0 0 0 8,4.7 1,1 0 0 0 7,5.7 1,1 0 0 0 7.19,6.29 1.45,1.45 0 0 1 5.91,7.16 c -1.08,0 -1.5,-0.82 -1.5,-1.71 a 1.41,1.41 0 0 1 0,-0.2 h 0.15 a 1.76,1.76 0 0 1 1.66,0.92 1.71,1.71 0 0 0 0.18,-1 c 0,-0.11 0,-0.24 0,-0.35 A 2.09,2.09 0 0 0 7.79,4.09 2.14,2.14 0 0 0 6.4,3.35 c 0,-0.1 0,-0.23 0,-0.34 A 1.69,1.69 0 0 0 6.22,2.01 1.7,1.7 0 0 1 4.91,3 1.71,1.71 0 0 1 5.81,1.65 1.73,1.73 0 0 0 4.81,1.47 5.5,5.5 0 0 0 4.16,1.55 2.92,2.92 0 0 0 1.8,0 3.35,3.35 0 0 0 0,0.55 2.42,2.42 0 0 1 1.8,1.19 c 0.86,0.87 0.92,1.56 0.92,3.92 0,2.52 1.3,3.76 3.16,3.76 A 4.28,4.28 0 0 0 8,8.05 4.28,4.28 0 0 0 10.16,8.87 3.73,3.73 0 0 0 12.33,8 3.73,3.73 0 0 0 14.46,8.88 4.28,4.28 0 0 0 16.62,8.06 4.28,4.28 0 0 0 18.78,8.88 3.74,3.74 0 0 0 20.92,8 3.69,3.69 0 0 0 23.05,8.88 4.28,4.28 0 0 0 25.21,8.06 4.28,4.28 0 0 0 27.37,8.88 3.73,3.73 0 0 0 29.5,8 3.73,3.73 0 0 0 31.63,8.88 4.28,4.28 0 0 0 33.79,8.06 4.28,4.28 0 0 0 36,8.87 c 1.86,0 3.16,-1.24 3.16,-3.76 0,-2.36 0.06,-3.05 0.92,-3.92 A 2.42,2.42 0 0 1 41.88,0.55 3.31,3.31 0 0 0 40,0"
       id="path32" />
    <path
       class="cls-1"
       d="m 37.43,19.23 -1.17,-0.13 -0.47,1.08 -0.47,-1.08 -1.17,0.13 0.69,-0.95 -0.69,-1 1.17,0.13 0.47,-1.07 0.47,1.07 1.17,-0.13 -0.69,1 z m 0,14.21 -1.17,-0.12 -0.47,1.07 -0.47,-1.07 -1.17,0.12 0.69,-0.94 -0.69,-1 1.17,0.13 0.47,-1.08 0.47,1.08 1.17,-0.13 -0.69,1 z m -0.21,14.21 -1.17,-0.13 -0.47,1.08 -0.48,-1.08 -1.17,0.13 0.7,-0.95 -0.7,-1 1.17,0.13 0.48,-1.07 0.47,1.07 1.17,-0.13 -0.69,1 z M 33,43.9 a 8.57,8.57 0 0 1 -0.49,3 h -2.75 l -0.94,-2.13 a 2.25,2.25 0 0 0 0.31,-2.69 L 28,40.2 26.69,36.47 26.64,35 26.93,34.85 a 0.55,0.55 0 0 0 0.24,-0.62 l -0.09,-0.26 a 0.53,0.53 0 0 0 -0.56,-0.33 l -0.43,0.07 -0.62,-0.49 a 0.56,0.56 0 0 0 -0.38,-0.09 l -0.38,0.08 -0.89,-0.7 a 0.19,0.19 0 0 0 -0.29,0 l -0.52,0.72 a 0.53,0.53 0 0 0 0,0.53 L 23.78,35 v 2.29 h -0.56 c -0.31,0 -0.56,-0.33 -0.56,-0.75 V 35.81 A 0.58,0.58 0 0 0 22.51,35.45 L 22,35 v -3 c 3.72,-0.36 6.56,-2.41 6.56,-4.88 0,-2.73 -3.47,-4.95 -7.76,-4.95 -4.29,0 -7.8,2.24 -7.8,4.97 0,2.47 2.84,4.52 6.56,4.88 V 45.47 A 1.43,1.43 0 0 1 18.13,46.9 H 9.28 a 8.57,8.57 0 0 1 -0.49,-3 V 21 H 33 Z m -8.34,1 1.19,1.4 -0.62,0.21 a 0.75,0.75 0 0 0 -0.32,0.24 l -0.13,0.19 H 23.43 A 1.44,1.44 0 0 1 22,45.47 v -6.65 l 0.84,1.66 a 0.54,0.54 0 0 0 0.58,0.28 l 0.39,-0.1 V 41 a 7.86,7.86 0 0 0 0.07,1 c 0.19,1.41 0.75,1.88 1,2 l -0.21,0.29 a 0.42,0.42 0 0 0 0,0.51 m -3.79,7.39 c -6.74,0 -9.76,-2 -11.09,-4.22 H 32 c -1.34,2.21 -4.35,4.22 -11.1,4.22 M 7.9,47.59 6.73,47.46 6.25,48.6 5.77,47.52 4.61,47.65 5.3,46.7 l -0.69,-1 1.16,0.13 0.48,-1.07 0.47,1.07 1.17,-0.13 -0.69,1 z M 4.39,31.54 5.56,31.67 6,30.59 l 0.48,1.08 1.17,-0.13 -0.7,1 0.7,0.94 L 6.48,33.36 6,34.39 5.53,33.32 4.36,33.44 5.05,32.5 Z m 0,-14.21 1.17,0.13 0.44,-1.07 0.48,1.07 1.17,-0.13 -0.7,1 0.7,0.95 L 6.51,19.1 6,20.18 5.56,19.1 4.39,19.23 5.08,18.28 Z m 14.88,0 1.17,0.13 0.47,-1.07 0.48,1.07 1.16,-0.13 -0.69,1 0.69,0.95 -1.16,-0.13 -0.48,1.08 -0.47,-1.08 -1.17,0.13 0.69,-0.95 z m -16,-1.74 V 44.5 c 0,8.57 6,13.45 17.63,13.45 11.63,0 17.65,-4.88 17.65,-13.45 V 15.59 Z"
       id="path34" />
    <path
       class="cls-1"
       d="m 239.28,27.4 a 8.79,8.79 0 0 1 -5.65,2.3 H 223.55 V 12.18 h 6 a 26.38,26.38 0 0 1 6.17,0.49 7,7 0 0 1 3,1.58 8.65,8.65 0 0 1 2.28,3.15 9.92,9.92 0 0 1 0.78,4 7.83,7.83 0 0 1 -2.49,6 m 4,2.32 a 12.65,12.65 0 0 0 2.91,-8.36 13.79,13.79 0 0 0 -1.47,-6.2 12.17,12.17 0 0 0 -3.94,-4.67 12,12 0 0 0 -4.1,-1.84 24.89,24.89 0 0 0 -5.94,-0.57 H 219.5 v 41.79 h 4.05 V 33.74 h 7.81 l 9.92,16.13 h 4.89 L 236.06,33.54 a 9.93,9.93 0 0 0 7.2,-3.82"
       id="path36" />
    <path
       class="cls-1"
       d="m 104.72,11.33 a 16.7,16.7 0 0 1 7.92,1.83 18.67,18.67 0 0 1 6.29,5.74 h 4.93 A 21.35,21.35 0 0 0 116,10.29 22.1,22.1 0 0 0 96.75,8.79 20.65,20.65 0 0 0 90,13.31 a 21.52,21.52 0 0 0 -4.87,7.09 21.06,21.06 0 0 0 -1.67,8.32 21.5,21.5 0 0 0 6.16,15.69 21.78,21.78 0 0 0 26.18,3.37 21.08,21.08 0 0 0 7.69,-8.25 h -4.88 a 17.16,17.16 0 0 1 -6.09,5.39 16.73,16.73 0 0 1 -7.83,1.81 15.86,15.86 0 0 1 -12,-5.19 17.85,17.85 0 0 1 -4.91,-12.77 17.09,17.09 0 0 1 5.02,-12.27 15.89,15.89 0 0 1 11.92,-5.17"
       id="path38" />
  </g>
  <polygon
     class="cls-1"
     points="133.99,30.95 151.55,30.95 151.55,26.82 133.99,26.82 133.99,12.19 151.55,12.19 151.55,8.08 129.86,8.08 129.86,49.86 151.55,49.86 151.55,45.81 133.99,45.81 "
     id="polygon42"
     transform="scale(0.99880828,1.000683)" />
  <polygon
     class="cls-1"
     points="163.28,49.86 162.82,13.02 185.74,49.86 190.68,49.86 190.68,8.09 186.6,8.09 187.09,44.87 164.17,8.09 159.24,8.09 159.24,49.86 "
     id="polygon44"
     transform="scale(0.99880828,1.000683)" />
  <polygon
     class="cls-1"
     points="207.46,12.19 215.81,12.19 215.81,8.08 195.01,8.08 195.01,12.19 203.36,12.19 203.36,49.86 207.46,49.86 "
     id="polygon46"
     transform="scale(0.99880828,1.000683)" />
  <g
     id="g52"
     transform="scale(0.99880828,1.000683)">
    <path
       class="cls-1"
       d="m 320.55,45.77 h -6.05 a 26.38,26.38 0 0 1 -6.17,-0.49 6.93,6.93 0 0 1 -3,-1.59 8.4,8.4 0 0 1 -2.24,-3.15 10.08,10.08 0 0 1 -0.77,-4 7.77,7.77 0 0 1 2.49,-6 8.7,8.7 0 0 1 5.65,-2.31 h 10.07 z m 0,-21.57 h -7.8 L 302.82,8.07 h -4.88 l 10.11,16.34 a 10,10 0 0 0 -7.21,3.81 12.71,12.71 0 0 0 -2.9,8.36 13.76,13.76 0 0 0 1.47,6.2 12.08,12.08 0 0 0 3.92,4.68 11.93,11.93 0 0 0 4.11,1.83 24.37,24.37 0 0 0 5.94,0.58 H 324.6 V 8.07 h -4.05 z"
       id="path48" />
    <path
       class="cls-1"
       d="m 454.38,13.54 a 21.75,21.75 0 0 0 -26.17,-3.38 21.14,21.14 0 0 0 -7.69,8.25 h 4.88 a 17.13,17.13 0 0 1 6.08,-5.41 16.88,16.88 0 0 1 7.83,-1.81 15.81,15.81 0 0 1 11.95,5.2 17.85,17.85 0 0 1 4.92,12.77 17.13,17.13 0 0 1 -4.95,12.27 15.87,15.87 0 0 1 -11.92,5.16 16.66,16.66 0 0 1 -7.91,-1.83 18.48,18.48 0 0 1 -6.29,-5.76 h -4.93 a 21.4,21.4 0 0 0 7.87,8.61 22.07,22.07 0 0 0 19.25,1.51 20.71,20.71 0 0 0 6.7,-4.52 21.92,21.92 0 0 0 4.88,-7.09 21.27,21.27 0 0 0 1.66,-8.32 21.5,21.5 0 0 0 -6.16,-15.69"
       id="path50" />
  </g>
  <polygon
     class="cls-1"
     points="392.49,31.13 410.05,31.13 410.05,45.76 392.49,45.76 392.49,49.86 414.18,49.86 414.18,8.09 392.49,8.09 392.49,12.13 410.05,12.13 410.05,26.99 392.49,26.99 "
     id="polygon54"
     transform="scale(0.99880828,1.000683)" />
  <polygon
     class="cls-1"
     points="357.43,49.86 356.94,13.08 379.87,49.86 384.8,49.86 384.8,8.08 380.75,8.08 381.22,44.92 358.29,8.08 353.36,8.08 353.36,49.86 "
     id="polygon56"
     transform="scale(0.99880828,1.000683)" />
  <polygon
     class="cls-1"
     points="328.22,49.86 349.02,49.86 349.02,45.76 340.68,45.76 340.68,8.08 336.57,8.08 336.57,45.76 328.22,45.76 "
     id="polygon58"
     transform="scale(0.99880828,1.000683)" />
  <polygon
     class="cls-1"
     points="267.84,29.31 271.88,29.31 271.88,33.4 272.52,33.4 272.52,29.31 276.56,29.31 276.56,28.66 272.52,28.66 272.52,24.67 271.88,24.67 271.88,28.66 267.84,28.66 "
     id="polygon60"
     transform="scale(0.99880828,1.000683)" />
  <path
     class="cls-1"
     d="M 271.87561,46.391664 A 17.359288,17.391871 0 1 1 289.2349,29.019807 17.369276,17.401877 0 0 1 271.87561,46.391664 m 0,-39.1367119 A 21.714092,21.754849 0 1 0 293.57972,29.019807 21.734068,21.774862 0 0 0 271.87561,7.2549521"
     id="path62"
     style="stroke-width:0.999745" />
  <polygon
     class="cls-1"
     points="192.73,40.44 192.76,40.5 "
     id="polygon64"
     transform="scale(0.99880828,1.000683)" />
</svg>
