<?xml version="1.0" encoding="UTF-8" standalone="no"?>
<svg
   id="Layer_1"
   data-name="Layer 1"
   viewBox="0 0 460 116"
   version="1.1"
   sodipodi:docname="logos minisite Frutas-01.svg"
   width="460"
   height="116"
   inkscape:version="1.1.1 (3bf5ae0d25, 2021-09-20)"
   xmlns:inkscape="http://www.inkscape.org/namespaces/inkscape"
   xmlns:sodipodi="http://sodipodi.sourceforge.net/DTD/sodipodi-0.dtd"
   xmlns="http://www.w3.org/2000/svg"
   xmlns:svg="http://www.w3.org/2000/svg">
  <sodipodi:namedview
     id="namedview55"
     pagecolor="#ffffff"
     bordercolor="#666666"
     borderopacity="1.0"
     inkscape:pageshadow="2"
     inkscape:pageopacity="0.0"
     inkscape:pagecheckerboard="0"
     showgrid="false"
     inkscape:zoom="2.6925926"
     inkscape:cx="258.30124"
     inkscape:cy="-0.55708391"
     inkscape:window-width="2560"
     inkscape:window-height="1418"
     inkscape:window-x="0"
     inkscape:window-y="22"
     inkscape:window-maximized="1"
     inkscape:current-layer="Layer_1" />
  <defs
     id="defs4">
    <style
       id="style2">
      .b {
        fill: #231f20;
      }
    </style>
  </defs>
  <path
     class="b"
     d="m 446.43044,95.06782 c 0,-3.552249 -1.57879,-6.452249 -5.94543,-6.452249 a 5.4757879,5.4989619 0 0 0 -5.5857,5.769896 v 3.502076 h 4.32667 v -3.100692 c 0,-1.00346 0.43966,-1.615571 1.37894,-1.615571 0.93928,0 1.36895,0.441523 1.36895,1.615571 0,2.578893 -0.72944,4.395156 -2.90777,7.776819 -3.6372,5.85017 -4.57648,8.38893 -4.57648,12.26228 V 116 h 11.77095 v -4.4654 h -6.38509 c 0,-1.45502 0.47963,-2.86989 2.62798,-6.45225 2.99769,-4.01384 3.92698,-6.412108 3.92698,-9.964357 m -12.69024,0 c 0,-3.552249 -1.57879,-6.452249 -5.94543,-6.452249 a 5.4757879,5.4989619 0 0 0 -5.62567,5.719723 v 3.502076 h 4.32667 v -3.100692 c 0,-1.00346 0.44966,-1.615571 1.37894,-1.615571 0.92929,0 1.36895,0.441523 1.36895,1.615571 0,2.578893 -0.72944,4.395156 -2.90776,7.776819 -3.63721,5.85017 -4.57648,8.38893 -4.57648,12.26228 V 116 h 11.77094 v -4.4654 h -6.3651 c 0,-1.45502 0.47963,-2.86989 2.62798,-6.45225 2.99769,-4.01384 3.92698,-6.412108 3.92698,-9.964357 m -15.49808,-8.19827 V 63.147751 h 2.71791 v -3.742907 h -9.99232 v 3.742907 h 2.7279 V 86.86955 Z M 400.50576,64.43218 a 5.0561107,5.0775087 0 0 1 5.27595,-5.358478 c 2.65795,0 4.75634,2.067128 4.75634,5.358478 v 4.545675 h -4.06687 V 64.30173 a 0.68946964,0.69238754 0 1 0 -1.36895,0 v 1.76609 c 0,4.615917 5.43582,6.883737 5.43582,13.205536 v 2.578893 a 5.0461184,5.067474 0 0 1 -5.27594,5.358478 c -2.68794,0 -4.72637,-2.067128 -4.72637,-5.358478 v -5.268166 h 4.06687 v 5.438754 c 0,0.571973 0.32975,0.772665 0.6595,0.772665 a 0.67947733,0.68235294 0 0 0 0.68947,-0.772665 v -2.749481 c 0,-3.803114 -5.44582,-7.094463 -5.44582,-11.780622 z m -4.91621,-1.284429 h 4.19677 v -3.742907 h -8.78325 V 86.86955 h 8.78325 v -3.732872 h -4.19677 v -9.57301 h 2.99769 v -3.361592 h -2.99769 z m -8.99309,7.024221 h 3.27748 v 3.361592 h -3.27748 V 86.86955 H 382 V 59.404844 h 8.29362 v 3.742907 h -3.69716 z M 398.21752,40.46955 h 2.96772 v 3.361592 h -2.94773 v 9.603114 h 4.19677 v 3.732872 h -8.79323 V 29.702422 h 8.79323 v 3.732872 h -4.19677 z m -10.22213,11.509689 a 0.67947733,0.68235294 0 0 1 -0.67948,0.772664 h -0.68947 V 34.117647 h 0.68947 a 0.67947733,0.68235294 0 0 1 0.67948,0.782699 z m 4.59646,-0.170588 V 35.070934 c 0,-3.632526 -1.93851,-5.368512 -5.27594,-5.368512 h -5.28593 v 27.464706 h 5.28593 a 5.0561107,5.0775087 0 0 0 5.27594,-5.358477 m 59.11453,7.596193 V 86.879585 H 460 v -3.742907 h -3.69716 V 59.404844 Z m -6.74481,16.055364 h -1.41891 l 0.72944,-7.847059 z m 5.50576,11.399308 -2.94773,-27.464706 h -5.99539 l -3.17755,27.464706 h 4.22675 l 0.6495,-7.265052 h 2.16833 l 0.65949,7.265052 z m -14.18908,0 2.99769,-27.464706 h -4.11683 L 433.3505,77.758131 431.61184,59.39481 h -4.44658 l 2.99769,27.464706 z m -9.8824,-27.464706 h -4.59646 v 27.484775 h 4.59646 z m -18.79554,-1.89654 a 5.0561107,5.0775087 0 0 0 5.27594,-5.368512 V 49.5609 c 0,-6.311765 -5.44581,-8.58962 -5.44581,-13.205537 v -1.76609 a 0.69946195,0.70242215 0 1 1 1.37894,0 v 4.696194 h 4.06687 v -4.555709 c 0,-3.29135 -2.09839,-5.368512 -4.75634,-5.368512 a 5.0561107,5.0775087 0 0 0 -5.27594,5.368512 v 3.01038 c 0,4.68616 5.44581,8.027682 5.44581,11.780623 v 2.809689 a 0.68946964,0.69238754 0 0 1 -0.68947,0.782699 c -0.32975,0 -0.6595,-0.200692 -0.6595,-0.782699 v -5.448789 h -4.06687 v 5.258131 c 0,3.301384 1.99847,5.368512 4.72637,5.368512 m 11.33128,-27.805882 h -4.58647 v 27.464706 h 4.58647 z m 9.17294,27.464706 h 2.32821 V 43.118685 h -4.99615 v 4.344983 h 0.88931 v 4.686159 c 0,0.571972 -0.16987,0.913149 -0.65949,0.913149 -0.48962,0 -0.68947,-0.341177 -0.68947,-0.913149 V 34.689619 c 0,-0.571972 0.16987,-0.913148 0.65949,-0.913148 0.48963,0 0.68947,0.341176 0.68947,0.913148 v 4.415225 h 4.09685 v -4.445328 c 0,-3.29135 -2.16833,-5.29827 -4.85626,-5.29827 a 4.9262106,4.9470588 0 0 0 -5.17602,5.29827 v 17.480276 a 4.9961568,5.017301 0 0 0 5.17602,5.368512 3.4873174,3.5020761 0 0 0 2.39815,-1.184083 z m 15.16834,0 V 29.702422 h -4.11684 V 41.954671 L 436.8578,29.702422 h -4.99616 v 27.464706 h 3.92698 V 43.861246 l 2.65796,13.305882 z M 398.02767,0 v 27.464706 h -4.18678 V 13.135294 l -2.29823,14.329412 h -3.21753 l -2.48808,-14.329412 v 14.329412 h -3.80707 V 0 h 6.16525 L 390.03382,13.887889 391.87241,0 Z m 52.46964,22.226644 a 0.67947733,0.68235294 0 0 1 -0.68947,0.782699 h -0.65949 V 4.4152249 h 0.68947 a 0.67947733,0.68235294 0 0 1 0.68947,0.7726644 z m 4.58647,-0.170589 V 5.3584775 C 455.08378,1.7259516 453.15527,0 449.80784,0 h -5.27594 v 27.464706 h 5.27594 a 5.0561107,5.0775087 0 0 0 5.27594,-5.368512 M 438.09685,0.0200692 h 4.59646 V 27.464706 h -4.59646 z m -6.93467,9.1615917 c 0,0.5719723 -0.32974,0.782699 -0.6495,0.782699 h -0.68947 v -5.549135 h 0.68947 c 0.31976,0 0.6495,0.2006921 0.6495,0.7726644 z m 5.37587,18.3332181 a 7.3043812,7.3352941 0 0 1 -0.74943,-3.29135 v -7.897231 a 3.6571868,3.6726644 0 0 0 -2.88777,-3.873357 4.9961568,5.017301 0 0 0 2.88777,-4.8467126 V 5.3584775 C 435.78862,1.7259516 433.85012,0 430.51268,0 h -5.34589 v 27.464706 h 4.59647 V 14.530104 c 0.81937,0 1.36895,0.170588 1.36895,1.284429 v 8.358823 c 0,1.083737 0.19984,2.92007 0.55957,3.29135 z M 405.81168,8.1782007 405.09224,16.015225 h 1.40891 z m 1.73867,19.2463663 -0.6495,-7.204844 h -2.16834 l -0.6495,7.265052 h -4.23674 L 403.03382,0 h 5.99539 l 2.99769,27.464706 z m 11.74096,-5.197923 a 0.67947733,0.68235294 0 0 1 -0.68947,0.782699 h -0.67947 V 4.4152249 h 0.67947 a 0.67947733,0.68235294 0 0 1 0.68947,0.7726644 z m 4.59647,-0.170589 V 5.3584775 C 423.88778,1.7259516 421.94927,0 418.60184,0 h -5.27594 v 27.464706 h 5.27594 a 5.066103,5.0875433 0 0 0 5.28594,-5.368512"
     id="path6"
     style="stroke-width:1.00134" />
  <path
     class="b"
     d="m 48.359885,28.568729 h -17.58 a 2.4,2.4083045 0 0 0 -2.36,2.418339 v 17.460208 a 0.49,0.4916955 0 0 1 -0.5,0.491695 0.5,0.5017301 0 0 1 -0.5,-0.491695 V 30.987068 a 2.41,2.4183391 0 0 0 -2.38,-2.418339 H 7.4798848 a 0.51,0.51176471 0 0 1 -0.5,-0.50173 0.5,0.5017301 0 0 1 0.5,-0.50173 H 25.029885 a 2.34,2.3480969 0 0 0 2.38,-2.338063 V 7.5462377 a 0.5,0.5017301 0 0 1 0.51,-0.5217993 0.51,0.51176471 0 0 1 0.51,0.5017301 V 25.227206 a 2.33,2.3380623 0 0 0 2.36,2.338063 h 17.57 a 0.49,0.4916955 0 0 1 0.49,0.50173 0.5,0.5017301 0 0 1 -0.49,0.50173 M 28.029885,2.1698585e-4 A 27.92,28.016609 0 1 0 55.839885,28.097103 27.91,28.006574 0 0 0 28.029885,2.1698585e-4"
     id="path8"
     style="stroke-width:1.00173" />
  <polygon
     class="b"
     points="87.16,2.7 89.71,2.7 92.22,19.32 92.26,19.32 94.4,2.7 96.98,2.7 93.88,26.07 90.92,26.07 88.33,9.94 88.3,9.94 85.75,26.07 82.78,26.07 79.61,2.7 82.58,2.7 84.68,19.35 84.71,19.35 "
     id="polygon12"
     transform="matrix(1,0,0,1.0034602,-2.0801152,-2.0067035)" />
  <g
     id="g18"
     transform="matrix(1,0,0,1.0034602,-2.0801152,-2.0067035)">
    <path
       class="b"
       d="M 98.77,20.25 V 8.53 c 0,-3.45 1.73,-6.07 5.66,-6.07 3.93,0 5.68,2.62 5.68,6.07 v 11.72 c 0,3.41 -1.69,6.06 -5.68,6.06 -3.99,0 -5.66,-2.65 -5.66,-6.06 m 8.31,0.44 V 8.08 c 0,-1.76 -0.79,-3.1 -2.65,-3.1 -1.86,0 -2.62,1.34 -2.62,3.1 v 12.61 c 0,1.76 0.79,3.11 2.62,3.11 1.83,0 2.65,-1.35 2.65,-3.11"
       id="path14" />
    <path
       class="b"
       d="m 115.83,14.84 v 11.23 h -3 V 2.7 H 118 c 3.66,0 5.11,1.8 5.11,4.86 v 3.21 c 0,2.69 -1.14,4.24 -3.9,4.58 l 4.58,10.72 h -3.24 z m 0,-9.65 v 8.13 h 1.83 A 2.09,2.09 0 0 0 120.07,11 V 7.46 c 0,-1.52 -0.76,-2.27 -2.41,-2.27 z"
       id="path16" />
  </g>
  <polygon
     class="b"
     points="128.76,2.7 128.76,23.59 133.96,23.59 133.96,26.07 125.72,26.07 125.72,2.7 "
     id="polygon20"
     transform="matrix(1,0,0,1.0034602,-2.0801152,-2.0067035)" />
  <g
     id="g26"
     transform="matrix(1,0,0,1.0034602,-2.0801152,-2.0067035)">
    <path
       class="b"
       d="m 141.68,2.7 c 4.1,0 5.55,2.62 5.55,6.07 V 20 c 0,3.41 -1.45,6.06 -5.55,6.06 h -5.51 V 2.7 Z m -2.48,20.89 h 2.1 c 2.14,0 2.9,-1.31 2.9,-3.07 V 8.22 c 0,-1.73 -0.76,-3 -2.9,-3 h -2.1 z"
       id="path22" />
    <path
       class="b"
       d="m 159.85,2.7 c 4.1,0 5.54,2.62 5.54,6.07 V 20 c 0,3.41 -1.44,6.06 -5.54,6.06 h -5.52 V 2.7 Z m -2.49,20.89 h 2.11 c 2.13,0 2.89,-1.31 2.89,-3.07 V 8.22 c 0,-1.73 -0.76,-3 -2.89,-3 h -2.11 z"
       id="path24" />
  </g>
  <polygon
     class="b"
     points="171.12,15.42 171.12,23.59 177.08,23.59 177.08,26.07 168.08,26.07 168.08,2.7 177.08,2.7 177.08,5.18 171.12,5.18 171.12,12.97 175.42,12.97 175.42,15.42 "
     id="polygon28"
     transform="matrix(1,0,0,1.0034602,-2.0801152,-2.0067035)" />
  <path
     class="b"
     d="m 176.91988,19.316826 v -3.361592 h 2.86 v 3.421799 a 2.42,2.4283737 0 1 0 4.83,0 v -1.063667 c 0,-1.565398 -0.59,-2.428374 -2,-3.803115 l -2.35,-2.317993 c -2.2,-2.187543 -3.24,-3.4920411 -3.24,-6.0207608 V 5.3085214 c 0,-2.8397923 1.72,-4.84671272 5.17,-4.84671272 3.62,0 5.17,1.76608992 5.17,5.01730102 v 2.1775086 h -2.79 v -2.317993 c 0,-1.6557094 -0.79,-2.4183391 -2.34,-2.4183391 a 2.14,2.1474048 0 0 0 -2.31,2.3480968 v 0.6622838 c 0,1.4851211 0.83,2.3480969 2.17,3.6626297 l 2.42,2.4484425 c 2.1,2.147405 3.14,3.431834 3.14,6.020761 v 1.204153 c 0,3.01038 -1.66,5.187889 -5.38,5.187889 -3.72,0 -5.35,-2.167474 -5.35,-5.137716"
     id="path30"
     style="stroke-width:1.00173" />
  <rect
     class="b"
     x="190.1599"
     y="0.70263916"
     width="3.03"
     height="23.450867"
     id="rect32"
     style="stroke-width:1.00173" />
  <path
     class="b"
     d="m 201.63988,11.911289 h 5.28 v 12.242215 h -2.31 v -2.317993 a 3.5,3.5121107 0 0 1 -3.72,2.558823 c -3.45,0 -5,-2.659169 -5,-6.080968 V 6.5528121 c 0,-3.4619377 1.69,-6.09100342 5.62,-6.09100342 4.17,0 5.38,2.28788922 5.38,5.63944632 v 2.0771626 h -2.83 V 5.8905284 c 0,-1.8262976 -0.58,-2.9 -2.48,-2.9 -1.9,0 -2.66,1.3446366 -2.66,3.1107266 v 12.663668 c 0,1.756055 0.72,3.110726 2.55,3.110726 1.83,0 2.51,-1.113841 2.51,-2.940138 v -4.605882 h -2.34 z"
     id="path34"
     style="stroke-width:1.00173" />
  <polygon
     class="b"
     points="222.47,2.7 222.47,26.07 219.75,26.07 214.34,9.42 214.34,26.07 211.75,26.07 211.75,2.7 214.78,2.7 219.88,18.32 219.88,2.7 "
     id="polygon36"
     transform="matrix(1,0,0,1.0034602,-2.0801152,-2.0067035)" />
  <path
     class="b"
     d="M 78.079885,49.440701 V 37.680148 c 0,-3.461938 1.62,-6.091004 5.58,-6.091004 4.14,0 5.24,2.287889 5.24,5.639446 v 2.769551 h -2.82 V 36.98776 c 0,-1.826298 -0.49,-2.9 -2.38,-2.9 -1.89,0 -2.59,1.344637 -2.59,3.110727 v 12.683737 c 0,1.76609 0.73,3.120761 2.59,3.120761 1.86,0 2.41,-1.184083 2.41,-2.910035 v -4.214533 h 2.81 v 4.013841 c 0,3.221108 -1.24,5.639447 -5.24,5.639447 -4,0 -5.58,-2.65917 -5.58,-6.080969"
     id="path38"
     style="stroke-width:1.00173" />
  <path
     class="b"
     d="m 90.519885,55.28084 4.52,-23.450865 h 3.55 l 4.549995,23.450865 h -3.1 l -0.899995,-4.906921 h -4.86 l -0.86,4.906921 z m 4.21,-7.405537 h 4 l -2,-11.038062 v 0 z"
     id="path40"
     style="stroke-width:1.00173" />
  <path
     class="b"
     d="m 105.20988,31.829975 h 5.3 c 3.66,0 5.07,1.796193 5.07,4.876816 v 5.438754 c 0,3.010381 -1.41,4.947059 -5.07,4.947059 h -2.27 v 8.19827 h -3 z m 3,2.488581 v 10.375778 h 1.93 a 2.1,2.1072664 0 0 0 2.41,-2.348096 v -5.739793 c 0,-1.525259 -0.76,-2.287889 -2.41,-2.287889 z"
     id="path42"
     style="stroke-width:1.00173" />
  <rect
     class="b"
     x="118.09988"
     y="31.829975"
     width="3.03"
     height="23.450867"
     id="rect44"
     style="stroke-width:1.00173" />
  <polygon
     class="b"
     points="125.42,36.2 125.42,33.72 135.48,33.72 135.48,36.2 132,36.2 132,57.09 128.93,57.09 128.93,36.2 "
     id="polygon46"
     transform="matrix(1,0,0,1.0034602,-2.0801152,-2.0067035)" />
  <path
     class="b"
     d="m 133.08988,55.28084 4.51,-23.450865 h 3.55 l 4.55,23.450865 h -3.1 l -0.9,-4.906921 h -4.86 l -0.86,4.906921 z m 4.2,-7.405537 h 4 l -2,-11.038062 v 0 z"
     id="path48"
     style="stroke-width:1.00173" />
  <polygon
     class="b"
     points="152.88,33.72 152.88,54.61 158.09,54.61 158.09,57.09 149.85,57.09 149.85,33.72 "
     id="polygon50"
     transform="matrix(1,0,0,1.0034602,-2.0801152,-2.0067035)" />
  <path
     class="b"
     d="m 200.31988,86.408175 h 9.31 v -1.615571 h -7.42 V 82.62513 c 0,-2.247751 0.72,-3.070588 2.1,-4.515571 l 2.78,-3.070588 c 1.88,-2.067128 2.57,-3.512111 2.57,-5.478893 V 67.3625 c 0,-3.14083 -1.54,-4.51557 -4.56,-4.51557 -3.02,0 -4.71,1.585467 -4.71,4.756401 v 2.6391 h 1.92 v -2.679238 c 0,-2.237717 1.1,-3.100693 2.72,-3.100693 1.62,0 2.67,0.692388 2.67,2.9 v 2.006921 a 6.41,6.4321799 0 0 1 -2.09,4.545675 l -2.47,2.729411 c -1.92,2.197578 -2.82,3.401731 -2.82,5.960554 z m -11.15,0 h 9.3 v -1.615571 h -7.42 V 82.62513 c 0,-2.247751 0.72,-3.070588 2.1,-4.515571 l 2.77,-3.070588 c 1.89,-2.067128 2.57,-3.512111 2.57,-5.478893 V 67.3625 c 0,-3.14083 -1.54,-4.51557 -4.56,-4.51557 -3.02,0 -4.71,1.585467 -4.71,4.756401 v 2.6391 h 1.93 v -2.679238 c 0,-2.237717 1.1,-3.100693 2.71,-3.100693 1.61,0 2.68,0.692388 2.68,2.9 v 2.006921 a 6.38,6.4020761 0 0 1 -2.1,4.545675 l -2.47,2.729411 c -1.92,2.197578 -2.81,3.401731 -2.81,5.960554 z m -7.21,0.210727 c 3.6,0 5.21,-2.548789 5.21,-5.759862 V 68.596757 c 0,-3.201039 -1.61,-5.749827 -5.21,-5.749827 -3.6,0 -5.19,2.548788 -5.19,5.749827 V 80.85904 c 0,3.211073 1.62,5.759862 5.19,5.759862 m 0,-1.625606 c -2.2,0 -3.23,-1.685813 -3.23,-3.853287 V 68.325822 c 0,-2.207612 1,-3.863322 3.23,-3.863322 2.23,0 3.26,1.65571 3.26,3.863322 v 12.814187 c 0,2.167474 -1,3.853287 -3.26,3.853287 m -16.41,1.414879 h 9.3 v -1.615571 h -7.41 V 82.62513 c 0,-2.247751 0.72,-3.070588 2.09,-4.515571 l 2.78,-3.070588 c 1.89,-2.067128 2.57,-3.512111 2.57,-5.478893 V 67.3625 c 0,-3.14083 -1.54,-4.51557 -4.56,-4.51557 -3.02,0 -4.7,1.585467 -4.7,4.756401 v 2.6391 h 1.92 v -2.679238 c 0,-2.237717 1.1,-3.100693 2.71,-3.100693 1.61,0 2.68,0.692388 2.68,2.9 v 2.006921 a 6.38,6.4020761 0 0 1 -2.1,4.545675 l -2.47,2.729411 c -1.92,2.197578 -2.81,3.401731 -2.81,5.960554 z m -11.5,-20.249827 v 0 l 2.51,12.944637 h -5 z m -3.85,20.249827 1.07,-5.649481 h 5.65 l 1.09,5.649481 h 2 l -4.69,-23.350519 h -2.4 l -4.6,23.350519 z m -5.32,0 h 2 V 63.057656 h -2 z m -6.9,0.210727 c 3.85,0 4.94,-2.328028 4.94,-5.338408 v -4.013841 h -1.89 v 4.114187 c 0,2.097231 -0.62,3.612456 -3,3.612456 -2.38,0 -3.27,-1.786159 -3.27,-3.923529 V 68.396064 c 0,-2.177508 0.9,-3.933564 3.27,-3.933564 2.37,0 3,1.384776 3,3.622492 v 2.889965 h 1.89 v -2.739446 c 0,-3.241177 -1,-5.378547 -4.91,-5.378547 -3.71,0 -5.18,2.578893 -5.18,5.820069 v 12.1218 c 0,3.160899 1.47,5.820069 5.18,5.820069 m -9.13,-0.210727 h 1.85 V 63.057656 h -1.71 v 18.222838 l -6.1,-18.222838 h -2.1 v 23.350519 h 1.71 V 67.462847 Z m -18.5,0 h 8.54 v -1.615571 h -6.59 v -9.44256 h 4.77 v -1.615571 h -4.77 v -9.031142 h 6.59 v -1.645675 h -8.54 z m -9.34,0 h 7.79 v -1.615571 h -5.83 V 63.057656 h -2 z M 93.589885,66.158348 v 0 l 2.5,12.944637 h -5 z m -3.84,20.249827 1.06,-5.649481 h 5.63 l 1.1,5.649481 h 2 l -4.68,-23.350519 h -2.4 l -4.6,23.350519 z m -2.71,-23.350519 -3.68,19.808305 v 0 l -3.77,-19.808305 h -2 l 4.6,23.350519 h 2.19 l 4.54,-23.350519 z"
     id="path52"
     style="stroke-width:1.00173" />
</svg>
