<?xml version="1.0" encoding="utf-8"?>
<!-- Generator: Adobe Illustrator 22.0.1, SVG Export Plug-In . SVG Version: 6.00 Build 0)  -->
<svg version="1.1" id="Layer_1" xmlns="http://www.w3.org/2000/svg" xmlns:xlink="http://www.w3.org/1999/xlink" x="0px" y="0px"
	 viewBox="0 0 23.7 43" style="enable-background:new 0 0 23.7 43;" xml:space="preserve">
<style type="text/css">
	.st0{fill:#FFFFFF;}
</style>
<path class="st0" d="M5.5,21.5l17.6,17.8c0.7,0.8,0.7,2,0,2.7l-0.4,0.5c-0.7,0.8-2,0.8-2.7,0L0.6,22.9c-0.7-0.8-0.7-2,0-2.7
	L19.9,0.6C20.3,0.2,20.8,0,21.3,0c0.5,0,1,0.2,1.3,0.6L23.1,1c0.7,0.8,0.7,2,0,2.7L5.5,21.5z"/>
<polygon points="2.8,21.5 3.1,21.8 21.7,40.6 21.3,41.1 1.9,21.5 21.3,1.9 21.7,2.4 3.1,21.2 "/>
</svg>
