<?xml version="1.0" encoding="utf-8"?>
<!-- Generator: Adobe Illustrator 22.0.1, SVG Export Plug-In . SVG Version: 6.00 Build 0)  -->
<svg version="1.1" id="Layer_1" xmlns="http://www.w3.org/2000/svg" xmlns:xlink="http://www.w3.org/1999/xlink" x="0px" y="0px"
	 viewBox="0 0 23.7 43" style="enable-background:new 0 0 23.7 43;" xml:space="preserve">
<style type="text/css">
	.st0{fill:#FFFFFF;}
</style>
<path class="st0" d="M18.1,21.5L0.6,3.7c-0.7-0.8-0.7-2,0-2.7L1,0.6c0.7-0.8,2-0.8,2.7,0l19.4,19.6c0.7,0.8,0.7,2,0,2.7L3.7,42.4
	C3.3,42.8,2.9,43,2.4,43s-1-0.2-1.3-0.6L0.6,42c-0.7-0.8-0.7-2,0-2.7L18.1,21.5z"/>
<polygon points="20.8,21.5 20.5,21.2 1.9,2.4 2.4,1.9 21.7,21.5 2.4,41.1 1.9,40.6 20.5,21.8 "/>
</svg>
